<?xml version="1.0" standalone="no"?>
<!DOCTYPE svg PUBLIC "-//W3C//DTD SVG 20010904//EN"
 "http://www.w3.org/TR/2001/REC-SVG-20010904/DTD/svg10.dtd">
<svg version="1.0" xmlns="http://www.w3.org/2000/svg"
 width="792.000000pt" height="793.000000pt" viewBox="0 0 792.000000 793.000000"
 preserveAspectRatio="xMidYMid meet">
<metadata>
Created by potrace 1.13, written by Peter Selinger 2001-2015
</metadata>
<g transform="translate(0.000000,793.000000) scale(0.100000,-0.100000)"
fill="#000000" stroke="none">
<path d="M1212 7919 c-299 -35 -572 -164 -791 -374 -233 -224 -375 -513 -410
-837 -16 -139 -15 -5348 0 -5490 68 -628 539 -1112 1176 -1207 50 -8 891 -11
2780 -11 2908 0 2773 -2 2956 50 435 121 778 446 924 874 73 214 67 -45 70
2991 4 2974 6 2829 -52 3030 -30 103 -91 241 -148 335 -151 248 -400 453 -681
561 -83 32 -234 67 -338 78 -119 13 -5374 13 -5486 0z m5598 -143 c258 -61
433 -158 616 -341 149 -148 241 -294 303 -480 66 -196 62 11 58 -3030 l-2
-2760 -23 -85 c-113 -423 -391 -735 -785 -880 -106 -39 -216 -61 -357 -71 -96
-7 -1026 -9 -2770 -7 l-2625 4 -99 22 c-135 31 -204 56 -320 115 -361 184
-610 532 -666 932 -8 58 -10 838 -8 2815 3 2593 4 2739 22 2810 56 237 158
428 316 594 193 204 435 329 720 375 31 5 1259 8 2800 7 2606 -1 2749 -2 2820
-20z"/>
<path d="M2485 7557 c-12 -7 -429 -428 -929 -937 -499 -509 -944 -961 -989
-1004 l-82 -80 -3 -1540 c-1 -848 0 -1556 3 -1574 5 -28 176 -207 991 -1043
542 -555 993 -1013 1003 -1018 10 -6 566 -6 1426 -1 776 5 1440 9 1476 10 l67
0 889 908 c488 499 939 959 1001 1024 l112 116 0 1542 0 1541 -82 87 c-46 48
-494 513 -996 1034 l-913 948 -1477 0 c-1140 -1 -1482 -3 -1497 -13z m3848
-1074 l933 -968 -1653 -3 c-909 -1 -2399 -1 -3311 0 l-1657 3 944 960 943 960
107 6 c58 3 703 6 1433 7 l1327 2 934 -967z m-2548 -1506 c74 -33 114 -68 141
-123 24 -48 26 -63 22 -132 -5 -90 -28 -142 -85 -193 -72 -65 -123 -83 -255
-87 l-117 -4 -3 -132 -3 -131 -107 -3 -108 -3 0 416 0 417 238 -4 c200 -3 243
-6 277 -21z m745 -317 l0 -340 85 0 86 0 -3 -72 -3 -73 -277 -3 -278 -2 0 75
0 75 85 0 85 0 0 215 0 215 -85 0 -85 0 0 69 0 69 65 7 c72 7 118 36 129 80 6
24 8 25 101 25 l95 0 0 -340z m2790 -1620 l0 -579 -962 -983 -963 -983 -580
-6 c-319 -3 -965 -7 -1435 -7 l-855 -1 -957 982 -957 982 -1 588 0 587 3355 0
3355 0 0 -580z"/>
<path d="M3873 6727 l-43 -10 0 -319 c0 -256 3 -325 15 -353 16 -40 45 -55 92
-48 36 6 77 43 55 50 -7 3 -19 18 -27 33 -12 24 -15 86 -15 345 0 354 8 323
-77 302z"/>
<path d="M5380 6640 l0 -60 80 0 80 0 0 60 0 60 -80 0 -80 0 0 -60z"/>
<path d="M2140 6513 c-63 -11 -121 -37 -154 -69 -61 -59 -71 -87 -71 -194 0
-87 2 -99 28 -137 35 -55 86 -88 167 -109 75 -19 173 -15 258 11 l52 16 0 59
c0 33 -2 60 -5 60 -3 0 -25 -10 -48 -22 -51 -26 -168 -36 -219 -19 -44 15 -76
48 -84 89 l-6 32 187 0 188 0 -5 68 c-7 99 -49 165 -123 196 -35 15 -128 26
-165 19z m107 -115 c12 -13 24 -38 28 -55 l7 -33 -111 0 c-62 0 -111 4 -111 9
0 23 23 67 43 83 34 27 118 24 144 -4z"/>
<path d="M3410 6513 c-63 -11 -121 -37 -154 -69 -61 -59 -71 -87 -71 -194 0
-87 2 -99 28 -137 35 -55 86 -88 167 -109 75 -19 173 -15 258 11 l52 16 0 59
c0 33 -2 60 -5 60 -3 0 -25 -10 -48 -22 -51 -26 -168 -36 -219 -19 -44 15 -76
48 -84 89 l-6 32 187 0 188 0 -5 68 c-7 99 -49 165 -123 196 -35 15 -128 26
-165 19z m107 -115 c12 -13 24 -38 28 -55 l7 -33 -111 0 c-62 0 -111 4 -111 9
0 23 23 67 43 83 34 27 118 24 144 -4z"/>
<path d="M4279 6510 c-129 -23 -201 -113 -200 -253 0 -121 32 -183 118 -234
36 -21 62 -27 123 -31 199 -11 311 97 298 287 -6 79 -33 137 -83 179 -58 47
-164 69 -256 52z m115 -110 c73 -27 88 -217 22 -279 -16 -15 -36 -22 -63 -23
-87 -1 -117 44 -111 169 3 81 4 86 36 114 34 30 71 37 116 19z"/>
<path d="M2785 6489 c-22 -12 -44 -25 -49 -30 -17 -16 -26 -10 -26 16 0 25 -1
25 -80 25 l-80 0 0 -250 0 -250 80 0 80 0 0 184 0 184 31 11 c43 15 101 14
123 -2 26 -19 35 -82 36 -239 l0 -138 76 0 75 0 -3 203 c-3 190 -4 204 -26
238 -12 20 -38 44 -56 53 -49 23 -133 21 -181 -5z"/>
<path d="M4835 6493 c-88 -46 -124 -112 -125 -227 0 -100 15 -150 60 -197 60
-63 158 -76 249 -34 l54 25 -6 -36 c-10 -60 -30 -81 -89 -93 -37 -8 -68 -8
-103 -1 -27 6 -65 13 -82 16 l-33 7 0 -61 0 -60 52 -7 c84 -12 220 -9 263 5
60 19 105 57 128 109 19 42 22 69 25 304 l4 257 -80 0 c-51 0 -82 -4 -84 -11
-3 -8 -14 -7 -35 5 -42 21 -157 21 -198 -1z m219 -99 c13 -5 16 -25 16 -120
l0 -113 -30 -16 c-16 -8 -48 -15 -70 -15 -33 0 -48 6 -72 30 -29 30 -30 33
-26 106 3 71 6 78 36 105 26 24 41 29 81 29 27 0 56 -3 65 -6z"/>
<path d="M5822 6495 c-104 -32 -164 -121 -164 -243 0 -113 42 -186 131 -229
50 -25 67 -27 156 -27 72 0 111 5 138 17 l37 17 0 65 c0 71 -11 82 -45 45 -39
-43 -144 -52 -196 -17 -44 30 -59 60 -59 125 0 76 24 120 77 144 55 24 104 18
168 -23 25 -16 48 -29 50 -29 3 0 5 31 5 69 l0 69 -47 16 c-57 19 -190 20
-251 1z"/>
<path d="M5380 6250 l0 -250 80 0 80 0 0 250 0 250 -80 0 -80 0 0 -250z"/>
<path d="M3490 4720 l0 -120 53 0 c117 1 174 34 184 107 7 53 -18 100 -62 119
-19 8 -66 14 -105 14 l-70 0 0 -120z"/>
<path d="M2294 1455 c-3 -8 -2 -20 2 -27 17 -27 345 -457 352 -462 4 -3 13 -2
18 2 6 4 91 114 189 245 141 188 176 240 164 248 -8 5 -173 9 -367 9 -299 0
-353 -2 -358 -15z"/>
<path d="M3654 1455 c-3 -8 -2 -20 2 -27 17 -27 345 -457 352 -462 4 -3 13 -2
18 2 6 4 91 114 189 245 141 188 176 240 164 248 -8 5 -173 9 -367 9 -299 0
-353 -2 -358 -15z"/>
<path d="M4894 1445 c-3 -8 -2 -20 2 -27 27 -44 355 -478 361 -478 5 0 67 80
138 177 247 335 240 324 224 334 -8 5 -173 9 -367 9 -299 0 -353 -2 -358 -15z"/>
<path d="M812 6865 c-84 -43 -126 -134 -103 -222 50 -185 321 -190 381 -7 39
117 -49 240 -179 251 -36 3 -58 -2 -99 -22z"/>
<path d="M6905 6878 c-100 -36 -153 -135 -126 -235 47 -174 286 -192 362 -28
70 152 -79 318 -236 263z"/>
<path d="M812 1325 c-84 -43 -126 -134 -103 -222 50 -185 321 -190 381 -7 39
117 -49 240 -179 251 -36 3 -58 -2 -99 -22z"/>
<path d="M6905 1338 c-100 -36 -153 -135 -126 -235 47 -174 286 -192 362 -28
70 152 -79 318 -236 263z"/>
</g>
</svg>
