<?xml version="1.0" encoding="iso-8859-1"?>
<!-- Generator: Adobe Illustrator 16.0.0, SVG Export Plug-In . SVG Version: 6.00 Build 0)  -->
<!DOCTYPE svg PUBLIC "-//W3C//DTD SVG 1.1//EN" "http://www.w3.org/Graphics/SVG/1.1/DTD/svg11.dtd">
<svg version="1.1" id="Capa_1" xmlns="http://www.w3.org/2000/svg" xmlns:xlink="http://www.w3.org/1999/xlink" x="0px" y="0px"
	 width="94.445px" height="94.445px" viewBox="0 0 94.445 94.445" style="enable-background:new 0 0 94.445 94.445;"
	 xml:space="preserve">
<g>
	<path d="M64.601,60.257h16.604c0-15.61-4.366-27.37-12.977-34.954c-10.26-9.029-22.584-8.591-25.741-8.312H36.92
		c-0.659-2.175-2.772-3.783-5.304-3.783h-2.765c-2.541,0-4.654,1.608-5.313,3.783H3.946v16.604h19.368v1.646
		c0,2.858,2.484,5.185,5.537,5.185h2.769c3.053,0,5.53-2.327,5.53-5.185v-1.646h5.765l0.445,0.01l0.522-0.067
		c0.073-0.007,7.828-0.763,13.502,4.334C62.178,42.192,64.601,49.724,64.601,60.257z"/>
	<path d="M20.418,10.831h20.08c2.38,0,4.31-1.93,4.31-4.307V4.307c0-2.376-1.94-4.307-4.31-4.307h-20.08
		c-2.375,0-4.31,1.93-4.31,4.307v2.221C16.108,8.901,18.047,10.831,20.418,10.831z"/>
	<path d="M65.305,67.91l-2.642-0.821l0.821-2.646l2.643,0.824L65.305,67.91z M62.451,77.026l-2.642-0.818l1.423-4.562l2.643,0.821
		L62.451,77.026z M59.61,86.149l-2.642-0.828l1.424-4.558l2.642,0.821L59.61,86.149z M57.365,93.35l-2.642-0.822l0.818-2.648
		l2.646,0.828L57.365,93.35z M70.924,67.978l-2.744-0.332l0.328-2.741l2.745,0.328L70.924,67.978z M69.788,77.464l-2.744-0.329
		l0.567-4.743l2.745,0.329L69.788,77.464z M68.655,86.958l-2.748-0.336l0.575-4.743l2.744,0.336L68.655,86.958z M67.756,94.438
		l-2.745-0.328l0.329-2.745l2.744,0.332L67.756,94.438z M73.06,65.168l2.752-0.271l0.267,2.751l-2.752,0.271L73.06,65.168z
		 M74.716,82.186l2.759-0.267l0.458,4.75l-2.758,0.274L74.716,82.186z M73.799,72.68l2.752-0.271l0.465,4.753l-2.751,0.264
		L73.799,72.68z M75.921,94.445l-0.277-2.755l2.741-0.273l0.28,2.755L75.921,94.445z M77.892,64.983l2.601-0.94l0.945,2.601
		l-2.598,0.938L77.892,64.983z M83.71,81.061l2.597-0.941l1.626,4.49l-2.594,0.944L83.71,81.061z M80.462,72.071l2.598-0.941
		l1.629,4.493l-2.601,0.938L80.462,72.071z M86.954,90.043l2.601-0.944l0.944,2.598l-2.601,0.948L86.954,90.043z"/>
</g>
<g>
</g>
<g>
</g>
<g>
</g>
<g>
</g>
<g>
</g>
<g>
</g>
<g>
</g>
<g>
</g>
<g>
</g>
<g>
</g>
<g>
</g>
<g>
</g>
<g>
</g>
<g>
</g>
<g>
</g>
</svg>
