<?xml version="1.0" encoding="iso-8859-1"?>
<!-- Generator: Adobe Illustrator 19.0.0, SVG Export Plug-In . SVG Version: 6.00 Build 0)  -->
<svg version="1.1" id="Layer_1" xmlns="http://www.w3.org/2000/svg" xmlns:xlink="http://www.w3.org/1999/xlink" x="0px" y="0px"
	 viewBox="0 0 360 360" style="enable-background:new 0 0 360 360;" xml:space="preserve">
<g id="XMLID_12_">
	<path id="XMLID_13_" d="M102.342,246.475C99.541,242.42,94.928,240,90,240s-9.541,2.42-12.342,6.475
		c-0.32,0.463-7.925,11.497-15.633,24.785C46.765,297.566,45,308.822,45,315c0,24.813,20.187,45,45,45s45-20.187,45-45
		c0-6.178-1.765-17.434-17.025-43.74C110.267,257.972,102.662,246.938,102.342,246.475z"/>
	<path id="XMLID_14_" d="M300,60h-60h-15V30h15c8.284,0,15-6.716,15-15s-6.716-15-15-15h-60c-8.284,0-15,6.716-15,15s6.716,15,15,15
		h15v30h-15h-60c-41.355,0-75,33.645-75,75v60c0,8.284,6.716,15,15,15h60c8.284,0,15-6.716,15-15v-45h45h60h60
		c8.284,0,15-6.716,15-15V75C315,66.716,308.284,60,300,60z"/>
</g>
<g>
</g>
<g>
</g>
<g>
</g>
<g>
</g>
<g>
</g>
<g>
</g>
<g>
</g>
<g>
</g>
<g>
</g>
<g>
</g>
<g>
</g>
<g>
</g>
<g>
</g>
<g>
</g>
<g>
</g>
</svg>
