<svg width="150" height="150" xmlns="http://www.w3.org/2000/svg">

 <g>
  <title>background</title>
  <rect fill="none" id="canvas_background" height="152" width="152" y="-1" x="-1"/>
 </g>
 <g>
  <title>Layer 1</title>
  <path id="svg_1" d="m93.39,10.41c1.54,-2.53 2.32,-5.41 3.3,-8.18c6.58,5.61 9.41,13.93 12.29,21.79c2.91,10.33 5.44,21.06 3.99,31.86c-2.71,17.05 -11.3,32.73 -22.63,45.57c-2.69,3.23 -6.27,5.94 -7.48,10.14c-1.39,0.29 -2.79,0.57 -4.18,0.85c0.84,-4.67 0.76,-9.47 1.79,-14.09c2.41,-4.89 5.83,-9.3 7.4,-14.6c4.35,-11.27 6.09,-23.29 8.06,-35.15c-3.53,11.17 -8.5,21.88 -15.29,31.46c-0.92,-12.16 -3.93,-25.28 -13.8,-33.4c9.42,-11.65 18.52,-23.59 26.55,-36.25z" fill="#000000"/>
  <path id="svg_2" d="m49.1,10.15c13.19,-6.44 28.66,-7 42.72,-3.32c-1.04,1.75 -2.09,3.5 -3.13,5.26c-10.58,-2.22 -21.88,-2.38 -32.09,1.56c-17.71,6.04 -31.5,22.19 -34.76,40.61c-1.38,10.45 -1.01,21.54 3.71,31.16c10.31,24.82 41.4,38.83 66.6,28.87c14.57,-4.94 26.71,-16.51 32.15,-30.93c3.86,-8.33 3.8,-17.74 3.21,-26.71c-1.2,-9.71 -5.35,-19.05 -11.69,-26.5c-3.6,-3.97 -4.69,-9.4 -6.45,-14.3c18.95,12.93 28.51,37.83 23.47,60.16c-4.47,23.99 -25.54,43.76 -49.77,46.68c-22.15,3.61 -45.8,-6.89 -58.11,-25.65c-6.9,-9.57 -9.09,-21.5 -9.94,-33.03c0.22,-7 1.81,-13.87 3.49,-20.64c5.43,-14.43 16.49,-26.82 30.59,-33.22z" fill="#cccccc"/>
  <path id="svg_3" d="m35.87,48.42c2.34,-6.85 5.89,-13.4 11.25,-18.37c4.09,10.08 12.83,17.08 20.03,24.86c6.47,7.7 9.14,17.75 10.49,27.53c1.36,10.48 -1.38,21.27 -7.37,29.95c-1.97,-0.42 -3.95,-0.8 -5.92,-1.19c-2.25,-12.83 -7.55,-24.8 -12.97,-36.55c-2.43,-4.17 -3.95,-8.84 -6.79,-12.77c1.56,7.9 6.31,14.65 8.64,22.3c2.87,7.42 4.65,15.33 4.46,23.31c-3.2,-1.67 -6.39,-3.6 -8.63,-6.5c-4.69,-5.74 -9.49,-11.58 -12.6,-18.36c-3.95,-10.98 -3.56,-23.04 -0.59,-34.21z" fill="#000000"/>
  <text font-weight="bold" style="cursor: move;" xml:space="preserve" text-anchor="start" font-family="Helvetica, Arial, sans-serif" font-size="20" id="svg_4" y="141.5" x="42.5" stroke-width="0" stroke="#000" fill="#000000">LS 120</text>
 </g>
</svg>