<?xml version="1.0" standalone="no"?>
<!DOCTYPE svg PUBLIC "-//W3C//DTD SVG 20010904//EN"
 "http://www.w3.org/TR/2001/REC-SVG-20010904/DTD/svg10.dtd">
<svg version="1.0" xmlns="http://www.w3.org/2000/svg"
 width="401.000000pt" height="402.000000pt" viewBox="0 0 401.000000 402.000000"
 preserveAspectRatio="xMidYMid meet">
<metadata>
Created by potrace 1.13, written by Peter Selinger 2001-2015
</metadata>
<g transform="translate(0.000000,402.000000) scale(0.100000,-0.100000)"
fill="#000000" stroke="none">
<path d="M3010 2371 c0 -1001 4 -1592 10 -1596 5 -3 7 -12 4 -19 -10 -27 47
-231 89 -315 78 -157 236 -278 402 -311 33 -6 68 -16 77 -21 10 -5 97 -9 193
-9 l175 0 0 250 0 250 -110 0 c-71 0 -122 5 -144 14 -86 36 -142 124 -153 242
-3 35 -10 67 -15 70 -4 3 -8 686 -8 1517 l0 1512 -260 3 -260 2 0 -1589z"/>
<path d="M1200 2815 c-47 -8 -110 -21 -140 -30 -163 -50 -150 -44 -310 -119
-19 -9 -70 -42 -114 -74 -43 -31 -88 -62 -99 -69 -27 -15 -167 -155 -167 -167
0 -5 -15 -27 -33 -50 -43 -53 -127 -182 -127 -195 0 -6 -13 -36 -29 -68 -16
-32 -36 -85 -46 -118 -9 -33 -21 -69 -25 -80 -32 -78 -55 -312 -47 -480 6
-127 29 -280 47 -314 4 -9 16 -43 26 -76 22 -78 96 -233 145 -304 22 -31 54
-78 73 -106 35 -51 158 -178 193 -198 11 -7 51 -36 89 -64 83 -63 247 -147
328 -167 32 -9 63 -20 70 -25 30 -25 299 -60 463 -61 221 0 379 25 548 88 131
49 288 138 361 203 11 11 26 19 32 19 7 0 77 64 157 142 l145 143 -117 95
c-64 52 -122 97 -128 99 -5 2 -35 24 -65 50 -30 25 -63 53 -73 60 -17 13 -27
6 -115 -81 -98 -96 -207 -188 -222 -188 -5 0 -32 -14 -61 -30 -28 -17 -86 -42
-128 -56 -42 -14 -85 -29 -96 -34 -88 -38 -371 -38 -470 0 -11 4 -57 19 -103
34 -176 58 -376 223 -442 363 -11 23 -24 44 -29 47 -5 4 -21 45 -36 94 -15 48
-31 94 -36 103 -6 13 -2 18 14 23 12 3 511 6 1109 6 672 0 1089 4 1093 9 9 16
-13 333 -24 344 -6 6 -11 24 -11 39 0 34 -38 212 -53 247 -5 14 -11 28 -12 31
-1 3 -5 14 -10 25 -4 11 -21 55 -38 98 -16 42 -34 77 -38 77 -5 0 -9 8 -9 18
0 10 -20 48 -45 85 -25 37 -45 70 -45 73 0 3 -27 39 -60 79 -72 88 -204 211
-263 244 -23 13 -53 31 -67 41 -49 35 -216 108 -284 125 -38 9 -76 21 -85 25
-64 36 -424 50 -591 25z m324 -474 c3 -4 29 -11 58 -14 173 -21 338 -105 464
-239 52 -54 134 -168 134 -185 0 -7 4 -21 10 -31 42 -76 68 -181 48 -194 -18
-11 -1599 -10 -1617 1 -11 7 -12 13 -5 23 6 7 16 38 23 68 6 30 25 82 43 115
17 33 40 78 51 100 30 60 196 221 254 246 26 11 55 26 63 33 22 19 107 44 191
57 41 6 81 15 89 19 20 12 187 12 194 1z"/>
</g>
</svg>
