<?xml version="1.0" encoding="UTF-8" ?>
<!DOCTYPE svg PUBLIC "-//W3C//DTD SVG 1.1//EN" "http://www.w3.org/Graphics/SVG/1.1/DTD/svg11.dtd">
<svg width="129pt" height="132pt" viewBox="0 0 129 132" version="1.1" xmlns="http://www.w3.org/2000/svg">
<path fill="#000000" d=" M 82.39 15.41 C 83.93 12.88 84.71 10.00 85.69 7.23 C 92.27 12.84 95.10 21.16 97.98 29.02 C 100.89 39.35 103.42 50.08 101.97 60.88 C 99.26 77.93 90.67 93.61 79.34 106.45 C 76.65 109.68 73.07 112.39 71.86 116.59 C 70.47 116.88 69.07 117.16 67.68 117.44 C 68.52 112.77 68.44 107.97 69.47 103.35 C 71.88 98.46 75.30 94.05 76.87 88.75 C 81.22 77.48 82.96 65.46 84.93 53.60 C 81.40 64.77 76.43 75.48 69.64 85.06 C 68.72 72.90 65.71 59.78 55.84 51.66 C 65.26 40.01 74.36 28.07 82.39 15.41 Z" />
<path fill="#cccccc" d=" M 38.10 15.15 C 51.29 8.71 66.76 8.15 80.82 11.83 C 79.78 13.58 78.73 15.33 77.69 17.09 C 67.11 14.87 55.81 14.71 45.60 18.65 C 27.89 24.69 14.10 40.84 10.84 59.26 C 9.46 69.71 9.83 80.80 14.55 90.42 C 24.86 115.24 55.95 129.25 81.15 119.29 C 95.72 114.35 107.86 102.78 113.30 88.36 C 117.16 80.03 117.10 70.62 116.51 61.65 C 115.31 51.94 111.16 42.60 104.82 35.15 C 101.22 31.18 100.13 25.75 98.37 20.85 C 117.32 33.78 126.88 58.68 121.84 81.01 C 117.37 105.00 96.30 124.77 72.07 127.69 C 49.92 131.30 26.27 120.80 13.96 102.04 C 7.06 92.47 4.87 80.54 4.02 69.01 C 4.24 62.01 5.83 55.14 7.51 48.37 C 12.94 33.94 24.00 21.55 38.10 15.15 Z" />
<path fill="#000000" d=" M 24.87 53.42 C 27.21 46.57 30.76 40.02 36.12 35.05 C 40.21 45.13 48.95 52.13 56.15 59.91 C 62.62 67.61 65.29 77.66 66.64 87.44 C 68.00 97.92 65.26 108.71 59.27 117.39 C 57.30 116.97 55.32 116.59 53.35 116.20 C 51.10 103.37 45.80 91.40 40.38 79.65 C 37.95 75.48 36.43 70.81 33.59 66.88 C 35.15 74.78 39.90 81.53 42.23 89.18 C 45.10 96.60 46.88 104.51 46.69 112.49 C 43.49 110.82 40.30 108.89 38.06 105.99 C 33.37 100.25 28.57 94.41 25.46 87.63 C 21.51 76.65 21.90 64.59 24.87 53.42 Z" />
</svg>
