<?xml version="1.0" encoding="utf-8"?>
<!-- Generator: Adobe Illustrator 21.1.0, SVG Export Plug-In . SVG Version: 6.00 Build 0)  -->
<svg version="1.1" id="Laag_1" xmlns="http://www.w3.org/2000/svg" xmlns:xlink="http://www.w3.org/1999/xlink" x="0px" y="0px"
	 viewBox="0 0 129 132" style="enable-background:new 0 0 129 132;" xml:space="preserve">
<style type="text/css">
	.st0{fill:#CCCCCC;}
</style>
<path d="M82.4,15.4c1.5-2.5,2.3-5.4,3.3-8.2C92.3,12.8,95.1,21.2,98,29c2.9,10.3,5.4,21.1,4,31.9c-2.7,17-11.3,32.7-22.6,45.6
	c-2.7,3.2-6.3,5.9-7.5,10.1c-1.4,0.3-2.8,0.6-4.2,0.9c0.8-4.7,0.8-9.5,1.8-14.1c2.4-4.9,5.8-9.3,7.4-14.6
	c4.3-11.3,6.1-23.3,8.1-35.2c-3.5,11.2-8.5,21.9-15.3,31.5c-0.9-12.2-3.9-25.3-13.8-33.4C65.3,40,74.4,28.1,82.4,15.4z"/>
<path d="M24.9,53.4C27.2,46.6,30.8,40,36.1,35c4.1,10.1,12.8,17.1,20,24.9c6.5,7.7,9.1,17.8,10.5,27.5c1.4,10.5-1.4,21.3-7.4,29.9
	c-2-0.4-4-0.8-5.9-1.2c-2.2-12.8-7.5-24.8-13-36.5c-2.4-4.2-4-8.8-6.8-12.8c1.6,7.9,6.3,14.7,8.6,22.3c2.9,7.4,4.7,15.3,4.5,23.3
	c-3.2-1.7-6.4-3.6-8.6-6.5c-4.7-5.7-9.5-11.6-12.6-18.4C21.5,76.7,21.9,64.6,24.9,53.4z"/>
<g>
	<path d="M107.9,77.3c3.4,12.5,8.2,17,14.1,29.1c5.8,11.8-2.8,23.6-14.1,23.6S88,118.2,93.7,106.4C99.7,94.3,104.4,89.8,107.9,77.3z
		"/>
</g>
<path class="st0" d="M121.8,81c5-22.3-4.5-47.2-23.5-60.2c1.8,4.9,2.9,10.3,6.5,14.3c6.3,7.4,10.5,16.8,11.7,26.5
	c0.6,8.6,0.6,17.6-2.8,25.7c1.2,2.2,2.5,4.4,3.9,6.7C119.6,89.9,121,85.6,121.8,81z"/>
<path class="st0" d="M81.2,119.3c-25.2,10-56.3-4-66.6-28.9c-4.7-9.6-5.1-20.7-3.7-31.2c3.3-18.4,17-34.6,34.8-40.6
	c10.2-3.9,21.5-3.8,32.1-1.6c1-1.8,2.1-3.5,3.1-5.3c-14.1-3.7-29.5-3.1-42.7,3.3C24,21.5,12.9,33.9,7.5,48.4C5.8,55.1,4.2,62,4,69
	c0.8,11.5,3,23.5,9.9,33c12.3,18.8,36,29.3,58.1,25.7c7-0.8,13.7-3.1,19.8-6.4c-0.9-1.9-1.5-3.9-1.8-6
	C87.3,116.9,84.3,118.2,81.2,119.3z"/>
</svg>
